HIERARCHY
ROOT Hips
{
	OFFSET 0.000000 0.000000 0.000000
	CHANNELS 6 Xposition Yposition Zposition Xrotation Yrotation Zrotation
	JOINT LeftUpLeg_virtual
	{
		OFFSET 0.000000 0.000000 0.000000
		CHANNELS 3 Xrotation Yrotation Zrotation
		JOINT LeftUpLeg
		{
			OFFSET 11.394100 -6.187798 -0.413800
			CHANNELS 3 Xrotation Yrotation Zrotation
			JOINT LeftLeg
			{
				OFFSET 0.430247 -32.302673 3.732800
				CHANNELS 3 Xrotation Yrotation Zrotation
				JOINT LeftFoot
				{
					OFFSET -0.430247 -48.264931 -6.423300
					CHANNELS 3 Xrotation Yrotation Zrotation
					JOINT LeftToeBase
					{
						OFFSET 4.230900 -16.068199 23.438400
						CHANNELS 3 Xrotation Yrotation Zrotation
						JOINT LeftToe_End
						{
							OFFSET 4.510700 0.695400 19.974600
							CHANNELS 3 Xrotation Yrotation Zrotation
							End Site
							{
								OFFSET 0 0 0
							}
						}
					}
				}
			}
		}
	}
	JOINT RightUpLeg_virtual
	{
		OFFSET 0.000000 0.000000 0.000000
		CHANNELS 3 Xrotation Yrotation Zrotation
		JOINT RightUpLeg
		{
			OFFSET -11.333700 -6.187798 -0.413800
			CHANNELS 3 Xrotation Yrotation Zrotation
			JOINT RightLeg
			{
				OFFSET -0.430392 -32.302628 3.733000
				CHANNELS 3 Xrotation Yrotation Zrotation
				JOINT RightFoot
				{
					OFFSET 0.430392 -48.264973 -6.423500
					CHANNELS 3 Xrotation Yrotation Zrotation
					JOINT RightToeBase
					{
						OFFSET -4.230900 -16.068199 23.438400
						CHANNELS 3 Xrotation Yrotation Zrotation
						JOINT RightToe_End
						{
							OFFSET -4.510700 0.695400 19.974600
							CHANNELS 3 Xrotation Yrotation Zrotation
							End Site
							{
								OFFSET 0 0 0
							}
						}
					}
				}
			}
		}
	}
	JOINT Spine_virtual
	{
		OFFSET 0.000000 0.000000 0.000000
		CHANNELS 3 Xrotation Yrotation Zrotation
		JOINT Spine
		{
			OFFSET -0.002400 12.777504 0.315300
			CHANNELS 3 Xrotation Yrotation Zrotation
			JOINT Spine1
			{
				OFFSET -0.002067 5.816869 0.032633
				CHANNELS 3 Xrotation Yrotation Zrotation
				JOINT Spine1_split
				{
					OFFSET -0.002067 5.816869 0.032633
					CHANNELS 3 Xrotation Yrotation Zrotation
					JOINT Spine2
					{
						OFFSET -0.002067 5.816869 0.032633
						CHANNELS 3 Xrotation Yrotation Zrotation
						JOINT Neck_virtual
						{
							OFFSET 0.000000 0.000000 0.000000
							CHANNELS 3 Xrotation Yrotation Zrotation
							JOINT Neck
							{
								OFFSET -0.003700 21.199493 -0.826900
								CHANNELS 3 Xrotation Yrotation Zrotation
								JOINT Head
								{
									OFFSET 0.000000 20.442200 4.834800
									CHANNELS 3 Xrotation Yrotation Zrotation
									JOINT HeadTop_End
									{
										OFFSET 0.000000 34.668396 4.968400
										CHANNELS 3 Xrotation Yrotation Zrotation
										End Site
										{
											OFFSET 0 0 0
										}
									}
								}
							}
						}
						JOINT LeftShoulder_virtual
						{
							OFFSET 0.000000 0.000000 0.000000
							CHANNELS 3 Xrotation Yrotation Zrotation
							JOINT LeftShoulder
							{
								OFFSET 3.288150 8.794197 -1.372250
								CHANNELS 3 Xrotation Yrotation Zrotation
								JOINT LeftShoulder_split
								{
									OFFSET 3.288150 8.794197 -1.372250
									CHANNELS 3 Xrotation Yrotation Zrotation
									JOINT LeftArm
									{
										OFFSET 11.953299 -2.279007 -0.146200
										CHANNELS 3 Xrotation Yrotation Zrotation
										JOINT LeftForeArm
										{
											OFFSET 18.448900 0.000000 0.000000
											CHANNELS 3 Xrotation Yrotation Zrotation
											JOINT LeftHand
											{
												OFFSET 29.527798 0.000000 0.000000
												CHANNELS 3 Xrotation Yrotation Zrotation
												End Site
												{
													OFFSET 0 0 0
												}
											}
										}
									}
								}
							}
						}
						JOINT RightShoulder_virtual
						{
							OFFSET 0.000000 0.000000 0.000000
							CHANNELS 3 Xrotation Yrotation Zrotation
							JOINT RightShoulder
							{
								OFFSET -3.249400 8.794197 -1.372250
								CHANNELS 3 Xrotation Yrotation Zrotation
								JOINT RightShoulder_split
								{
									OFFSET -3.249400 8.794197 -1.372250
									CHANNELS 3 Xrotation Yrotation Zrotation
									JOINT RightArm
									{
										OFFSET -11.953299 -2.279007 -0.146200
										CHANNELS 3 Xrotation Yrotation Zrotation
										JOINT RightForeArm
										{
											OFFSET -18.448900 0.000000 0.000000
											CHANNELS 3 Xrotation Yrotation Zrotation
											JOINT RightHand
											{
												OFFSET -29.527802 0.000000 0.000000
												CHANNELS 3 Xrotation Yrotation Zrotation
												End Site
												{
													OFFSET 0 0 0
												}
											}
										}
									}
								}
							}
						}
					}
				}
			}
		}
	}
}
MOTION
Frames: 5
Frame Time: 0.03333333
-1.250334 78.349808 2.971252 0.000000 0.000000 0.000000 24.957240 -10.240234 -4.501951 -96.455453 -3.233284 5.867564 54.929040 10.381897 -7.754119 27.160191 28.125833 2.355138 -6.786675 1.242053 1.884077 0.000000 0.000000 0.000000 23.933217 -9.354091 -5.729291 -8.410950 -19.571625 -0.614386 62.515615 -8.589491 5.405099 -18.992832 -12.209130 33.957556 -39.345513 3.642399 -0.772504 0.000000 0.000000 0.000000 19.794004 -9.891859 -6.623631 10.586257 11.433899 -9.328916 1.205089 4.003737 -0.581816 0.418607 2.070159 0.425800 0.000000 0.000000 0.000000 1.840698 4.393868 -0.648826 -1.264488 -4.644590 3.951079 -3.328097 -9.376166 12.381356 0.000000 0.000000 0.000000 2.845805 4.185785 -0.738493 1.657333 2.265419 -15.285115 -1.767205 -0.345524 -2.212208 -5.183057 24.235541 -36.493783 1.244498 -21.017221 -0.761285 0.000000 0.000000 0.000000 2.786959 4.125995 -0.677001 3.896954 11.678134 -6.386271 0.829291 0.214009 2.268729 -51.688365 64.178329 17.930587 -171.974396 77.120158 169.570525 0.000000 0.000000 0.000000 
-1.673082 78.343277 5.434532 0.000000 0.000000 0.000000 25.753848 -10.222009 -4.531520 -96.639944 -3.227404 6.359719 55.046308 9.839785 -7.850435 26.383877 28.118589 2.436625 -6.703818 1.246587 1.909344 0.000000 0.000000 0.000000 25.153679 -8.513338 -6.011154 -9.995385 -19.081160 -3.006380 62.345598 -7.851429 5.496676 -16.775807 -11.768856 33.366167 -38.468927 2.594133 0.642897 0.000000 0.000000 0.000000 21.336584 -9.566433 -6.546472 11.013171 11.166109 -9.625122 1.517181 3.842562 -0.582751 0.662433 1.750554 0.237410 0.000000 0.000000 0.000000 1.940344 4.301306 -0.694764 -1.372203 -4.164207 3.804069 -3.373611 -9.568882 12.177966 0.000000 0.000000 0.000000 3.016650 4.007538 -0.762377 1.624128 1.304064 -15.607025 -2.346389 -1.063735 -2.473497 -7.201557 23.143317 -36.158523 1.362963 -22.616430 -0.772340 0.000000 0.000000 0.000000 2.868679 3.979346 -0.636956 3.933115 12.073562 -6.175526 0.791657 0.040047 2.258713 -48.446020 63.267182 14.713032 -170.182428 77.831344 168.041177 0.000000 0.000000 0.000000 
-2.543929 78.259216 8.464447 0.000000 0.000000 0.000000 27.150955 -10.094605 -4.331791 -97.780216 -3.367711 7.023698 56.470785 8.761012 -7.823446 24.098593 27.967285 2.805799 -7.089231 1.244519 1.914357 0.000000 0.000000 0.000000 27.234447 -7.159110 -6.048941 -14.563609 -17.347350 -7.472753 62.762342 -7.216611 5.484277 -12.767525 -11.789014 31.475400 -36.938377 1.059894 4.019852 0.000000 0.000000 0.000000 23.677423 -9.264813 -6.232671 12.055774 10.498236 -10.133255 1.682544 3.637969 -0.737551 1.057988 1.595007 -0.123712 0.000000 0.000000 0.000000 1.954194 4.140611 -0.906028 -1.770748 -3.606654 3.594561 -3.832721 -10.023960 12.033193 0.000000 0.000000 0.000000 2.941293 3.769301 -0.924269 1.487762 -0.088175 -16.503562 -3.071682 -1.133465 -2.942921 -9.891150 21.552300 -34.810493 1.748086 -26.097685 -0.531521 0.000000 0.000000 0.000000 2.763910 3.746273 -0.759282 3.934267 12.724132 -5.583906 0.421310 0.134962 2.148651 -41.984975 60.783233 8.772107 -169.666311 77.147246 167.652976 0.000000 0.000000 0.000000 
-3.654181 78.081909 11.573879 0.000000 0.000000 0.000000 29.011635 -9.826291 -3.946878 -99.699062 -3.494125 7.642338 58.768601 7.262594 -7.658369 20.784998 27.461595 3.265468 -8.071095 1.188966 2.126647 0.000000 0.000000 0.000000 29.797964 -5.726341 -5.817567 -21.730995 -14.471928 -13.254107 63.822981 -6.760215 5.454311 -7.656976 -12.519485 28.579762 -35.203639 -0.473561 8.071673 0.000000 0.000000 0.000000 26.522873 -8.913531 -5.785831 13.444579 9.542968 -10.756273 1.659933 3.392806 -0.980751 1.272863 1.506183 -0.251314 0.000000 0.000000 0.000000 1.904611 3.922021 -1.206070 -2.381279 -3.035378 3.311727 -4.684487 -10.699043 11.946846 0.000000 0.000000 0.000000 2.711157 3.498611 -1.172874 1.269821 -1.606759 -17.896790 -3.767330 -0.584910 -3.433972 -12.299802 19.712271 -32.935247 2.299248 -30.730312 -0.078935 0.000000 0.000000 0.000000 2.502173 3.447218 -1.005266 3.938276 13.489634 -4.791878 -0.044041 0.528762 1.996989 -34.985284 57.165586 2.844368 -170.580532 74.982705 168.601020 0.000000 0.000000 0.000000 
-4.793727 77.924309 14.641964 0.000000 0.000000 0.000000 31.114650 -9.408055 -3.537041 -102.001171 -3.484914 8.086218 61.342421 5.471884 -7.303862 17.204990 26.643499 3.517431 -9.267151 1.046162 2.600245 0.000000 0.000000 0.000000 32.397455 -4.762291 -5.339594 -31.063178 -10.888058 -19.457503 65.222228 -6.407056 5.482643 -1.992713 -13.672838 25.748399 -34.123065 -1.508485 11.116535 0.000000 0.000000 0.000000 29.544352 -8.501158 -5.346593 14.966758 8.406578 -11.405059 1.508834 3.141466 -1.260174 1.389459 1.325843 -0.111543 0.000000 0.000000 0.000000 1.824434 3.660410 -1.514188 -3.030489 -2.532561 3.002374 -5.796935 -11.444609 11.850483 0.000000 0.000000 0.000000 2.419102 3.225052 -1.434595 0.986801 -3.058105 -19.630712 -4.243779 0.033539 -3.727589 -13.850070 17.692948 -30.904748 2.822455 -35.978015 0.477919 0.000000 0.000000 0.000000 2.172623 3.116205 -1.295970 3.945516 14.268450 -4.005161 -0.321615 1.082890 1.854176 -28.876646 53.204284 -1.723535 -172.118923 71.733905 170.103006 0.000000 0.000000 0.000000 
